<?xml version="1.0" encoding="UTF-8" standalone="no"?>
<!DOCTYPE svg PUBLIC "-//W3C//DTD SVG 1.1//EN" "http://www.w3.org/Graphics/SVG/1.1/DTD/svg11.dtd">
<svg width="100%" height="100%" viewBox="0 0 48 48" version="1.1" xmlns="http://www.w3.org/2000/svg" xmlns:xlink="http://www.w3.org/1999/xlink" xml:space="preserve" xmlns:serif="http://www.serif.com/" style="fill-rule:evenodd;clip-rule:evenodd;stroke-linejoin:round;stroke-miterlimit:2;">
    <g transform="matrix(0.0319149,0,0,0.0319149,0,0)">
        <circle cx="751.765" cy="751.765" r="751.765" style="fill:white;"/>
    </g>
    <g transform="matrix(0.0319149,0,0,0.0319149,0,0)">
        <path d="M1010.17,140.15C928.28,105.52 841.35,87.95 751.77,87.95C662.19,87.95 575.24,105.52 493.36,140.15C444.32,160.89 398.39,187.18 356.03,218.7C346.21,226.01 345.18,240.33 353.84,248.99L434.93,330.08C441.79,336.94 452.58,337.92 460.54,332.38C489.44,312.26 520.37,295.2 553.09,281.36C615.98,254.76 682.82,241.27 751.78,241.27C820.74,241.27 887.57,254.76 950.46,281.36C983.18,295.2 1014.1,312.26 1043.01,332.38C1050.97,337.92 1061.77,336.94 1068.63,330.08L1149.72,248.99C1158.37,240.34 1157.34,226.01 1147.53,218.7C1105.17,187.18 1059.24,160.89 1010.2,140.15L1010.17,140.15ZM1068.61,1173.45C1061.75,1166.59 1050.96,1165.61 1042.99,1171.15C1014.09,1191.27 983.16,1208.33 950.44,1222.17C887.56,1248.77 820.71,1262.25 751.76,1262.25C682.81,1262.25 615.97,1248.77 553.07,1222.17C520.36,1208.33 489.43,1191.27 460.52,1171.15C452.56,1165.61 441.76,1166.59 434.9,1173.45L353.81,1254.54C345.16,1263.19 346.19,1277.52 356,1284.83C398.36,1316.36 444.3,1342.65 493.33,1363.39C575.22,1398.02 662.16,1415.58 751.74,1415.58C841.32,1415.58 928.26,1398.02 1010.14,1363.39C1059.18,1342.64 1105.12,1316.36 1147.48,1284.83C1157.3,1277.52 1158.32,1263.2 1149.67,1254.54L1068.58,1173.45L1068.61,1173.45ZM1363.39,493.36C1342.65,444.32 1316.35,398.38 1284.83,356.03C1277.52,346.21 1263.2,345.18 1254.54,353.84L1173.45,434.93C1166.59,441.79 1165.61,452.58 1171.15,460.55C1191.27,489.45 1208.33,520.38 1222.17,553.1C1248.77,615.99 1262.25,682.83 1262.25,751.79C1262.25,820.75 1248.77,887.58 1222.17,950.47C1208.33,983.19 1191.27,1014.11 1171.15,1043.02C1165.61,1050.98 1166.59,1061.78 1173.45,1068.64L1254.55,1149.74C1263.2,1158.39 1277.53,1157.36 1284.84,1147.54C1316.36,1105.18 1342.65,1059.24 1363.39,1010.2C1398.02,928.31 1415.58,841.38 1415.58,751.8C1415.58,662.22 1398.02,575.27 1363.39,493.39L1363.39,493.36ZM241.28,751.77C241.28,682.82 254.77,615.98 281.37,553.08C295.21,520.36 312.26,489.43 332.38,460.53C337.92,452.57 336.94,441.77 330.08,434.91L248.99,353.82C240.34,345.17 226.01,346.2 218.7,356.01C187.18,398.37 160.89,444.3 140.15,493.34C105.52,575.23 87.95,662.17 87.95,751.75C87.95,841.33 105.52,928.27 140.15,1010.15C160.89,1059.19 187.18,1105.13 218.7,1147.48C226.01,1157.3 240.33,1158.33 248.99,1149.67L330.08,1068.58C336.94,1061.72 337.92,1050.93 332.38,1042.96C312.26,1014.06 295.21,983.13 281.36,950.41C254.76,887.53 241.27,820.68 241.27,751.73L241.28,751.77Z" style="fill:url(#_Radial1);fill-rule:nonzero;"/>
    </g>
    <g transform="matrix(0.0319149,0,0,0.0319149,0,0)">
        <path d="M903.27,899.86C863.53,940.49 808.9,963.55 752.06,963.63C695.35,963.71 642.05,941.66 601.96,901.58C580.12,879.74 563.65,853.99 553.17,825.9C544.46,802.49 539.9,777.48 539.9,751.77C539.9,726.06 544.45,701.05 553.17,677.64C563.64,649.55 580.12,623.79 601.96,601.96C642.05,561.88 695.36,539.83 752.07,539.91C808.9,539.99 863.54,563.05 903.28,603.68C921.17,621.97 935.36,642.94 945.47,665.67C948.7,672.93 955.87,677.64 963.83,677.64L1080.79,677.64C1094.15,677.64 1103.75,664.83 1100.07,651.99C1096.07,638.02 1091.2,624.26 1085.49,610.76C1067.24,567.62 1041.14,528.89 1007.9,495.65C974.65,462.4 935.93,436.3 892.79,418.06C848.08,399.15 800.64,389.56 751.77,389.56C702.9,389.56 655.45,399.15 610.75,418.06C567.6,436.31 528.87,462.41 495.64,495.65C462.39,528.9 436.28,567.62 418.04,610.76C408.87,632.46 401.88,654.81 397.14,677.65C392.09,701.86 389.55,726.63 389.55,751.78C389.55,776.93 392.08,801.69 397.14,825.91C401.88,848.76 408.87,871.1 418.04,892.8C436.29,935.95 462.4,974.68 495.64,1007.91C528.88,1041.16 567.61,1067.27 610.75,1085.51C655.45,1104.41 702.9,1114 751.77,1114C800.64,1114 848.08,1104.41 892.79,1085.51C935.93,1067.26 974.66,1041.15 1007.9,1007.91C1041.15,974.67 1067.25,935.94 1085.49,892.8C1091.2,879.29 1096.06,865.54 1100.07,851.57C1103.75,838.72 1094.15,825.92 1080.79,825.92L963.82,825.92C955.87,825.92 948.7,830.63 945.46,837.89C935.34,860.62 921.16,881.59 903.26,899.88L903.27,899.86Z" style="fill:rgb(4,30,59);fill-rule:nonzero;"/>
    </g>
    <g transform="matrix(0.0319149,0,0,0.0319149,0,0)">
        <circle cx="751.77" cy="751.77" r="81.49" style="fill:url(#_Radial2);"/>
    </g>
    <defs>
        <radialGradient id="_Radial1" cx="0" cy="0" r="1" gradientUnits="userSpaceOnUse" gradientTransform="matrix(1496.18,0,0,1496.18,513.86,-107.73)"><stop offset="0" style="stop-color:rgb(48,209,252);stop-opacity:1"/><stop offset="1" style="stop-color:rgb(2,73,176);stop-opacity:1"/></radialGradient>
        <radialGradient id="_Radial2" cx="0" cy="0" r="1" gradientUnits="userSpaceOnUse" gradientTransform="matrix(243847,0,0,243847,751.77,-16887.6)"><stop offset="0" style="stop-color:rgb(48,209,252);stop-opacity:1"/><stop offset="1" style="stop-color:rgb(2,73,176);stop-opacity:1"/></radialGradient>
    </defs>
</svg>
