<?xml version="1.0" encoding="UTF-8"?>
<svg id="Layer_1" data-name="Layer 1" xmlns="http://www.w3.org/2000/svg" xmlns:xlink="http://www.w3.org/1999/xlink" viewBox="0 0 1503.53 1503.53">
  <defs>
    <style>
      .cls-1 {
        fill: url(#radial-gradient);
      }

      .cls-1, .cls-2, .cls-3 {
        stroke-width: 0px;
      }

      .cls-2 {
        fill: url(#radial-gradient-2);
      }

      .cls-3 {
        fill: #041e3b;
      }
    </style>
    <radialGradient id="radial-gradient" cx="513.86" cy="-107.73" fx="513.86" fy="-107.73" r="1496.18" gradientUnits="userSpaceOnUse">
      <stop offset="0" stop-color="#30d1fc"/>
      <stop offset="1" stop-color="#0249b0"/>
    </radialGradient>
    <radialGradient id="radial-gradient-2" cy="-107.73" fy="-107.73" r="1496.18" xlink:href="#radial-gradient"/>
  </defs>
  <path class="cls-1" d="m1010.17,140.15c-81.89-34.63-168.82-52.2-258.4-52.2s-176.53,17.57-258.41,52.2c-49.04,20.74-94.97,47.03-137.33,78.55-9.82,7.31-10.85,21.63-2.19,30.29l81.09,81.09c6.86,6.86,17.65,7.84,25.61,2.3,28.9-20.12,59.83-37.18,92.55-51.02,62.89-26.6,129.73-40.09,198.69-40.09s135.79,13.49,198.68,40.09c32.72,13.84,63.64,30.9,92.55,51.02,7.96,5.54,18.76,4.56,25.62-2.3l81.09-81.09c8.65-8.65,7.62-22.98-2.19-30.29-42.36-31.52-88.29-57.81-137.33-78.55Zm58.44,1033.3c-6.86-6.86-17.65-7.84-25.62-2.3-28.9,20.12-59.83,37.18-92.55,51.02-62.88,26.6-129.73,40.08-198.68,40.08s-135.79-13.48-198.69-40.08c-32.71-13.84-63.64-30.9-92.55-51.02-7.96-5.54-18.76-4.56-25.62,2.3l-81.09,81.09c-8.65,8.65-7.62,22.98,2.19,30.29,42.36,31.53,88.3,57.82,137.33,78.56,81.89,34.63,168.83,52.19,258.41,52.19s176.52-17.56,258.4-52.19c49.04-20.75,94.98-47.03,137.34-78.56,9.82-7.31,10.84-21.63,2.19-30.29l-81.09-81.09Zm294.78-680.09c-20.74-49.04-47.04-94.98-78.56-137.33-7.31-9.82-21.63-10.85-30.29-2.19l-81.09,81.09c-6.86,6.86-7.84,17.65-2.3,25.62,20.12,28.9,37.18,59.83,51.02,92.55,26.6,62.89,40.08,129.73,40.08,198.69s-13.48,135.79-40.08,198.68c-13.84,32.72-30.9,63.64-51.02,92.55-5.54,7.96-4.56,18.76,2.3,25.62l81.1,81.1c8.65,8.65,22.98,7.62,30.29-2.2,31.52-42.36,57.81-88.3,78.55-137.34,34.63-81.89,52.19-168.82,52.19-258.4s-17.56-176.53-52.19-258.41ZM241.28,751.77c0-68.95,13.49-135.79,40.09-198.69,13.84-32.72,30.89-63.65,51.01-92.55,5.54-7.96,4.56-18.76-2.3-25.62l-81.09-81.09c-8.65-8.65-22.98-7.62-30.29,2.19-31.52,42.36-57.81,88.29-78.55,137.33-34.63,81.89-52.2,168.83-52.2,258.41s17.57,176.52,52.2,258.4c20.74,49.04,47.03,94.98,78.55,137.33,7.31,9.82,21.63,10.85,30.29,2.19l81.09-81.09c6.86-6.86,7.84-17.65,2.3-25.62-20.12-28.9-37.17-59.83-51.02-92.55-26.6-62.88-40.09-129.73-40.09-198.68Z"/>
  <path class="cls-3" d="m903.27,899.86c-39.74,40.63-94.37,63.69-151.21,63.77-56.71.08-110.01-21.97-150.1-62.05-21.84-21.84-38.31-47.59-48.79-75.68-8.71-23.41-13.27-48.42-13.27-74.13s4.55-50.72,13.27-74.13c10.47-28.09,26.95-53.85,48.79-75.68,40.09-40.08,93.4-62.13,150.11-62.05,56.83.08,111.47,23.14,151.21,63.77,17.89,18.29,32.08,39.26,42.19,61.99,3.23,7.26,10.4,11.97,18.36,11.97h116.96c13.36,0,22.96-12.81,19.28-25.65-4-13.97-8.87-27.73-14.58-41.23-18.25-43.14-44.35-81.87-77.59-115.11-33.25-33.25-71.97-59.35-115.11-77.59-44.71-18.91-92.15-28.5-141.02-28.5s-96.32,9.59-141.02,28.5c-43.15,18.25-81.88,44.35-115.11,77.59-33.25,33.25-59.36,71.97-77.6,115.11-9.17,21.7-16.16,44.05-20.9,66.89-5.05,24.21-7.59,48.98-7.59,74.13s2.53,49.91,7.59,74.13c4.74,22.85,11.73,45.19,20.9,66.89,18.25,43.15,44.36,81.88,77.6,115.11,33.24,33.25,71.97,59.36,115.11,77.6,44.7,18.9,92.15,28.49,141.02,28.49s96.31-9.59,141.02-28.49c43.14-18.25,81.87-44.36,115.11-77.6,33.25-33.24,59.35-71.97,77.59-115.11,5.71-13.51,10.57-27.26,14.58-41.23,3.68-12.85-5.92-25.65-19.28-25.65h-116.97c-7.95,0-15.12,4.71-18.36,11.97-10.12,22.73-24.3,43.7-42.2,61.99Z"/>
  <circle class="cls-2" cx="751.77" cy="751.77" r="81.49"/>
</svg>