<svg version="1.2" xmlns="http://www.w3.org/2000/svg" viewBox="0 0 256 256" width="256" height="256">
	<title>Ciphely - Logo-svg</title>
	<defs>
		<radialGradient id="g1" cx="0" cy="0" r="1" gradientUnits="userSpaceOnUse" gradientTransform="matrix(254.669,0,0,254.669,87.466,-18.337)">
			<stop offset="0" stop-color="#30d1fc"/>
			<stop offset="1" stop-color="#0249b0"/>
		</radialGradient>
		<radialGradient id="g2" cx="0" cy="0" r="1" gradientUnits="userSpaceOnUse" gradientTransform="matrix(254.669,0,0,254.669,0,-18.337)">
			<stop offset="0" stop-color="#30d1fc"/>
			<stop offset="1" stop-color="#0249b0"/>
		</radialGradient>
	</defs>
	<style>
		.s0 { fill: url(#g1) } 
		.s1 { fill: #041e3b } 
		.s2 { fill: url(#g2) } 
	</style>
	<path id="Layer" class="s0" d="m171.9 23.9c-13.9-5.9-28.7-8.9-43.9-8.9-15.3 0-30.1 3-44 8.9-8.4 3.5-16.2 8-23.4 13.3-1.7 1.3-1.8 3.7-0.4 5.2l13.8 13.8c1.2 1.2 3 1.3 4.4 0.4q7.4-5.2 15.7-8.7c10.7-4.5 22.1-6.8 33.9-6.8 11.7 0 23.1 2.3 33.8 6.8q8.3 3.5 15.7 8.7c1.4 0.9 3.2 0.8 4.4-0.4l13.8-13.8c1.5-1.5 1.3-3.9-0.4-5.2-7.2-5.3-15-9.8-23.4-13.3zm10 175.8c-1.2-1.1-3-1.3-4.4-0.4q-7.4 5.2-15.7 8.7c-10.7 4.6-22.1 6.9-33.8 6.9-11.8 0-23.1-2.3-33.9-6.9q-8.3-3.5-15.7-8.7c-1.4-0.9-3.2-0.7-4.4 0.4l-13.8 13.8c-1.4 1.5-1.3 4 0.4 5.2 7.2 5.4 15 9.8 23.4 13.4 13.9 5.9 28.7 8.8 44 8.8 15.2 0 30-2.9 43.9-8.8 8.4-3.6 16.2-8 23.4-13.4 1.7-1.2 1.9-3.7 0.4-5.2l-13.8-13.8zm50.2-115.7c-3.6-8.4-8-16.2-13.4-23.4-1.2-1.7-3.7-1.8-5.2-0.4l-13.8 13.8c-1.1 1.2-1.3 3-0.4 4.4q5.2 7.4 8.7 15.7c4.6 10.7 6.9 22.1 6.9 33.9 0 11.7-2.3 23.1-6.9 33.8q-3.5 8.3-8.7 15.7c-0.9 1.4-0.7 3.2 0.4 4.4l13.8 13.8c1.5 1.5 4 1.3 5.2-0.4 5.4-7.2 9.8-15 13.4-23.4 5.9-13.9 8.8-28.7 8.8-43.9 0-15.3-2.9-30.1-8.8-44zm-191 44c0-11.8 2.3-23.1 6.8-33.9q3.5-8.3 8.7-15.7c0.9-1.4 0.8-3.2-0.4-4.4l-13.8-13.8c-1.5-1.4-3.9-1.3-5.2 0.4-5.3 7.2-9.8 15-13.3 23.4-5.9 13.9-8.9 28.7-8.9 44 0 15.2 3 30 8.9 43.9 3.5 8.4 8 16.2 13.3 23.4 1.3 1.7 3.7 1.9 5.2 0.4l13.8-13.8c1.2-1.2 1.3-3 0.4-4.4q-5.2-7.4-8.7-15.7c-4.5-10.7-6.8-22.1-6.8-33.8z"/>
	<path id="Layer" class="s1" d="m153.7 153.2c-6.7 6.9-16 10.8-25.7 10.8-9.6 0-18.7-3.7-25.5-10.5-3.8-3.8-6.6-8.1-8.3-12.9-1.5-4-2.3-8.3-2.3-12.6 0-4.4 0.8-8.7 2.3-12.7 1.7-4.7 4.5-9.1 8.3-12.8 6.8-6.9 15.9-10.6 25.5-10.6 9.7 0 19 3.9 25.7 10.9 3.1 3.1 5.5 6.6 7.2 10.5 0.6 1.2 1.8 2 3.2 2h19.9c2.2 0 3.9-2.1 3.2-4.3q-1-3.6-2.4-7c-3.1-7.4-7.6-14-13.2-19.6-5.7-5.7-12.3-10.1-19.6-13.2-7.6-3.3-15.7-4.9-24-4.9-8.4 0-16.4 1.6-24 4.9-7.4 3.1-14 7.5-19.6 13.2-5.7 5.6-10.1 12.2-13.2 19.6q-2.4 5.5-3.6 11.3-1.3 6.2-1.3 12.7 0 6.4 1.3 12.6 1.2 5.8 3.6 11.4c3.1 7.3 7.5 13.9 13.2 19.6 5.6 5.6 12.2 10.1 19.6 13.2 7.6 3.2 15.6 4.8 24 4.8 8.3 0 16.4-1.6 24-4.8 7.3-3.1 13.9-7.6 19.6-13.2 5.6-5.7 10.1-12.3 13.2-19.6q1.4-3.5 2.4-7.1c0.7-2.1-1-4.3-3.2-4.3h-19.9c-1.4 0-2.6 0.8-3.2 2-1.7 3.9-4.1 7.5-7.2 10.6z"/>
	<path id="Layer" class="s2" d="m128 141.8c-7.7 0-13.9-6.2-13.9-13.8 0-7.7 6.2-13.9 13.9-13.9 7.6 0 13.8 6.2 13.8 13.9 0 7.6-6.2 13.8-13.8 13.8z"/>
</svg>